<mxfile host="Electron" agent="Mozilla/5.0 (Macintosh; Intel Mac OS X 10_15_7) AppleWebKit/537.36 (KHTML, like Gecko) draw.io/24.7.8 Chrome/128.0.6613.36 Electron/32.0.1 Safari/537.36" version="24.7.8">
  <diagram name="Página-1" id="r1FqTIBUT8Bi9rJ05l0K">
    <mxGraphModel dx="446" dy="400" grid="1" gridSize="10" guides="1" tooltips="1" connect="1" arrows="1" fold="1" page="1" pageScale="1" pageWidth="827" pageHeight="1169" background="#ffffff" math="0" shadow="0">
      <root>
        <mxCell id="0" />
        <mxCell id="1" parent="0" />
        <mxCell id="2SW0O2H4dn2WFUQ2ZftO-1" value="&lt;font style=&quot;font-size: 19px;&quot; color=&quot;#000000&quot;&gt;Proceso&lt;/font&gt;" style="ellipse;whiteSpace=wrap;html=1;strokeColor=#000000;fillColor=#FFFFFF;" vertex="1" parent="1">
          <mxGeometry x="340" y="170" width="120" height="80" as="geometry" />
        </mxCell>
        <mxCell id="2SW0O2H4dn2WFUQ2ZftO-2" value="" style="endArrow=classic;html=1;rounded=0;strokeColor=#000000;fontColor=#000000;labelBackgroundColor=none;exitX=1;exitY=0;exitDx=0;exitDy=0;" edge="1" parent="1" source="2SW0O2H4dn2WFUQ2ZftO-1">
          <mxGeometry width="50" height="50" relative="1" as="geometry">
            <mxPoint x="457" y="180" as="sourcePoint" />
            <mxPoint x="550" y="182" as="targetPoint" />
            <Array as="points" />
          </mxGeometry>
        </mxCell>
        <mxCell id="2SW0O2H4dn2WFUQ2ZftO-3" value="&lt;b&gt;stdout&lt;br&gt;&lt;/b&gt;(salida estándar)" style="text;html=1;align=center;verticalAlign=middle;resizable=0;points=[];autosize=1;strokeColor=none;fillColor=none;fontColor=#000000;" vertex="1" parent="1">
          <mxGeometry x="440" y="140" width="110" height="40" as="geometry" />
        </mxCell>
        <mxCell id="2SW0O2H4dn2WFUQ2ZftO-4" value="" style="endArrow=classic;html=1;rounded=0;strokeColor=#000000;fontColor=#000000;labelBackgroundColor=none;exitX=0.833;exitY=0.88;exitDx=0;exitDy=0;exitPerimeter=0;" edge="1" parent="1" source="2SW0O2H4dn2WFUQ2ZftO-1">
          <mxGeometry width="50" height="50" relative="1" as="geometry">
            <mxPoint x="440" y="248" as="sourcePoint" />
            <mxPoint x="550" y="240" as="targetPoint" />
            <Array as="points" />
          </mxGeometry>
        </mxCell>
        <mxCell id="2SW0O2H4dn2WFUQ2ZftO-5" value="&lt;b&gt;stderr&lt;br&gt;&lt;/b&gt;(salida de error)" style="text;html=1;align=center;verticalAlign=middle;resizable=0;points=[];autosize=1;strokeColor=none;fillColor=none;fontColor=#000000;" vertex="1" parent="1">
          <mxGeometry x="450" y="200" width="110" height="40" as="geometry" />
        </mxCell>
        <mxCell id="2SW0O2H4dn2WFUQ2ZftO-6" value="" style="endArrow=classic;html=1;rounded=0;strokeColor=#000000;fontColor=#000000;labelBackgroundColor=none;exitX=1;exitY=0;exitDx=0;exitDy=0;" edge="1" parent="1">
          <mxGeometry width="50" height="50" relative="1" as="geometry">
            <mxPoint x="232" y="212" as="sourcePoint" />
            <mxPoint x="340" y="212" as="targetPoint" />
            <Array as="points" />
          </mxGeometry>
        </mxCell>
        <mxCell id="2SW0O2H4dn2WFUQ2ZftO-7" value="&lt;b&gt;stdin&lt;br&gt;&lt;/b&gt;(salida estándar)" style="text;html=1;align=center;verticalAlign=middle;resizable=0;points=[];autosize=1;strokeColor=none;fillColor=none;fontColor=#000000;" vertex="1" parent="1">
          <mxGeometry x="230" y="170" width="110" height="40" as="geometry" />
        </mxCell>
      </root>
    </mxGraphModel>
  </diagram>
</mxfile>
